<svg xmlns="http://www.w3.org/2000/svg" width="204.3" height="50.926" viewBox="0 0 204.3 50.926">
  <g id="Group_9687" data-name="Group 9687" transform="translate(28.027 228.679)">
    <g id="Group_9685" data-name="Group 9685" transform="translate(-28.027 -228.679)">
      <path id="Path_3264" data-name="Path 3264" d="M-2.564-228.679a25.463,25.463,0,0,0-25.463,25.463A25.463,25.463,0,0,0-2.564-177.753,25.463,25.463,0,0,0,22.9-203.216,25.463,25.463,0,0,0-2.564-228.679Zm0,46.925a21.461,21.461,0,0,1-21.461-21.461A21.461,21.461,0,0,1-2.564-224.677,21.461,21.461,0,0,1,18.9-203.216,21.461,21.461,0,0,1-2.564-181.754Z" transform="translate(28.027 228.679)" fill="#513aff"/>
      <path id="Path_3265" data-name="Path 3265" d="M25.1-189.206A19.292,19.292,0,0,1,5.807-169.914a19.291,19.291,0,0,1-19.291-19.291,19.318,19.318,0,0,1,2.089-8.741c.889-1.747,3.558-6.511,5.919-6.391,1.071.054,1.666,1.409,1.371,2.439A5.72,5.72,0,0,1-6.064-199.4c-1.82,1.61-3.627,3.439-4.254,5.787a2.355,2.355,0,0,0,.053,1.706,1.047,1.047,0,0,0,1.468.446,8.156,8.156,0,0,1,.623-3.042,3.961,3.961,0,0,1,1.324-1.806,1.982,1.982,0,0,1,2.138-.135,2.3,2.3,0,0,1,.477,2.895,19.083,19.083,0,0,1-1.909,2.57,6.137,6.137,0,0,0-.256,6.8,4.958,4.958,0,0,0,6.367,1.6,17.3,17.3,0,0,0,2.024-1.667A8.811,8.811,0,0,1,6.671-186.2a4.281,4.281,0,0,1,1.69.108,7.026,7.026,0,0,1,1.564.828,11.512,11.512,0,0,0,6.755,1.822,7.983,7.983,0,0,0,6.03-3.293,11.181,11.181,0,0,0,1.526-6.168c0,.068.624.936.7,1.207A9.765,9.765,0,0,1,25.1-189.206Z" transform="translate(19.656 214.669)" fill="#513aff"/>
      <path id="Path_3266" data-name="Path 3266" d="M25.1-189.206A19.292,19.292,0,0,1,5.807-169.914a19.291,19.291,0,0,1-19.291-19.291,19.318,19.318,0,0,1,2.089-8.741c.889-1.747,3.558-6.511,5.919-6.391,1.071.054,1.666,1.409,1.371,2.439A5.72,5.72,0,0,1-6.064-199.4c-1.82,1.61-3.627,3.439-4.254,5.787a2.355,2.355,0,0,0,.053,1.706,1.047,1.047,0,0,0,1.468.446,8.156,8.156,0,0,1,.623-3.042,3.961,3.961,0,0,1,1.324-1.806,1.982,1.982,0,0,1,2.138-.135,2.3,2.3,0,0,1,.477,2.895,19.083,19.083,0,0,1-1.909,2.57,6.137,6.137,0,0,0-.256,6.8,4.958,4.958,0,0,0,6.367,1.6,17.3,17.3,0,0,0,2.024-1.667A8.811,8.811,0,0,1,6.671-186.2a4.281,4.281,0,0,1,1.69.108,7.026,7.026,0,0,1,1.564.828,11.512,11.512,0,0,0,6.755,1.822,7.983,7.983,0,0,0,6.03-3.293,11.181,11.181,0,0,0,1.526-6.168c0,.068.624.936.7,1.207A9.765,9.765,0,0,1,25.1-189.206Z" transform="translate(19.656 214.669)" fill="#1e90ff"/>
      <path id="Path_3267" data-name="Path 3267" d="M6.289-198.491a5.18,5.18,0,0,1,.853.208c.737.248,2.621,2.56,2.966,4.493a14.257,14.257,0,0,0,2.165-2.06c-.028,2.807,1.418,5.614.708,8.329-.21.8-.6,1.546-.83,2.342a6.8,6.8,0,0,0-.24,1.353c.507-.4.963-.865,1.461-1.276a8.812,8.812,0,0,1,4.682-1.954,4.29,4.29,0,0,1,1.69.108,7.025,7.025,0,0,1,1.564.828,11.645,11.645,0,0,0,6.431,1.838,14,14,0,0,1,.1-2.983c.259-1.9,1-3.644,1.38-5.5.068-.335.38-2.907.073-3.182a4.953,4.953,0,0,1,1.326,1.773c.064.152.188.342.343.286a14.072,14.072,0,0,1,3.776-3.4c.351-.246-3.669-4.949-4.117-5.428a5.138,5.138,0,0,0-3.75-1.625h-2.4a3.371,3.371,0,0,1-3.567,3.133,3.371,3.371,0,0,1-3.567-3.133h-2.4a6.789,6.789,0,0,0-4.382,2.008,7.154,7.154,0,0,1-.737.526c-.5.471-1.013.906-1.493,1.395-.514.523-1.016,1.06-1.574,1.537Q6.519-198.68,6.289-198.491Z" transform="translate(8.274 214.669)" fill="#ff4141"/>
    </g>
    <g id="Group_9686" data-name="Group 9686" transform="translate(31.541 -220.191)">
      <path id="Path_3268" data-name="Path 3268" d="M128-183.628q-.108,5.617-10.405,6.7a2.66,2.66,0,0,0,.936,1.674,2.526,2.526,0,0,0,1.584.558,3.921,3.921,0,0,0,3.2-1.764l4.032,2.376a8.983,8.983,0,0,1-7.668,3.852,7.287,7.287,0,0,1-5.365-2,7.121,7.121,0,0,1-1.98-5.383,11.587,11.587,0,0,1,2.646-7.741,8.714,8.714,0,0,1,7-3.132,7.2,7.2,0,0,1,4.212,1.278A4.035,4.035,0,0,1,128-183.628Zm-5.185.756a.915.915,0,0,0-.324-.828,1.514,1.514,0,0,0-.972-.288,3.214,3.214,0,0,0-2.251,1.026,5.639,5.639,0,0,0-1.494,2.79Q122.777-180.712,122.813-182.872Z" transform="translate(-112.335 197.057)"/>
      <path id="Path_3269" data-name="Path 3269" d="M156.7-206.473h5.8l-2.52,20.413h9.432l-.612,5.149H153.567Z" transform="translate(-136.069 207.409)"/>
      <path id="Path_3270" data-name="Path 3270" d="M202.473-170.235a4.954,4.954,0,0,1-4.231-2.016,8.481,8.481,0,0,1-1.494-5.184,12.654,12.654,0,0,1,2.413-7.866,7.188,7.188,0,0,1,5.9-3.186,5.452,5.452,0,0,1,4.141,1.548h.108l.144-1.224h5.436l-2.161,17.606H207.3l.324-2.592-.108-.036A6.007,6.007,0,0,1,202.473-170.235Zm1.728-4.788a3.689,3.689,0,0,0,2.862-1.854,10.961,10.961,0,0,0,1.782-5.023l.072-.5a3.852,3.852,0,0,0-2.916-1.26,3.139,3.139,0,0,0-2.754,1.836,7.842,7.842,0,0,0-1.062,4,3.4,3.4,0,0,0,.559,2.034A1.717,1.717,0,0,0,204.2-175.023Z" transform="translate(-160.924 197.057)"/>
      <path id="Path_3271" data-name="Path 3271" d="M249.223-169.8q-5.509,0-4.5-6.985l1.512-10.945H251.6l-1.332,9.325a7.975,7.975,0,0,0-.036,2.952,1.111,1.111,0,0,0,1.188.828,3.42,3.42,0,0,0,2.43-1.566,6.826,6.826,0,0,0,1.53-3.474l.972-8.065h5.4l-2.16,17.606H254.3l.216-2.592h-.072A6.348,6.348,0,0,1,249.223-169.8Z" transform="translate(-188.449 196.618)"/>
      <path id="Path_3272" data-name="Path 3272" d="M291.413-188.164h5.365l-.289,2.448.073.036a7.425,7.425,0,0,1,5.832-2.808,3.73,3.73,0,0,1,3.528,1.746q1.008,1.747.54,5.419l-1.4,10.765h-5.364l1.26-9.541a7.421,7.421,0,0,0,.018-2.7,1.027,1.027,0,0,0-1.061-.864,3.692,3.692,0,0,0-2.737,1.764,9.815,9.815,0,0,0-1.764,4.824l-.792,6.517h-5.4Z" transform="translate(-214.151 197.057)"/>
      <path id="Path_3273" data-name="Path 3273" d="M341.553-181.857a4.99,4.99,0,0,1-4.266-2.016,8.478,8.478,0,0,1-1.494-5.184,12.654,12.654,0,0,1,2.412-7.866,7.188,7.188,0,0,1,5.9-3.186,5.847,5.847,0,0,1,4.212,1.548h.108l1.224-10.117h5.436l-3.276,26.5h-5.4l.324-2.592-.108-.036A6.1,6.1,0,0,1,341.553-181.857Zm1.692-4.788a3.735,3.735,0,0,0,2.88-1.854,11.112,11.112,0,0,0,1.836-5.023l.072-.5a3.863,3.863,0,0,0-2.989-1.26,3.139,3.139,0,0,0-2.754,1.836,7.842,7.842,0,0,0-1.062,4,3.4,3.4,0,0,0,.558,2.034A1.719,1.719,0,0,0,343.245-186.645Z" transform="translate(-240.96 208.679)"/>
      <path id="Path_3274" data-name="Path 3274" d="M384.356-188.164h5.4l-.324,2.412h.072a6.179,6.179,0,0,1,5.04-2.736l-.756,5.976a3.1,3.1,0,0,0-3.439.684,7.556,7.556,0,0,0-1.961,4.5l-.792,6.769h-5.4Z" transform="translate(-267.67 197.057)"/>
      <path id="Path_3275" data-name="Path 3275" d="M428.713-187.725l-1.872,15.23q-1.153,9.829-9.937,9.829a11.914,11.914,0,0,1-6.373-1.728l1.692-4.069a7.888,7.888,0,0,0,4.392,1.368,4.436,4.436,0,0,0,3.222-1.134q1.169-1.134,1.638-4.375v-.036l-.108-.036a6.3,6.3,0,0,1-5.22,2.88q-5.508,0-4.5-6.985l1.512-10.945h5.365l-1.3,9.325a8.348,8.348,0,0,0-.054,2.952,1.107,1.107,0,0,0,1.206.828,3.423,3.423,0,0,0,2.466-1.6,6.739,6.739,0,0,0,1.494-3.474l1.008-8.029Z" transform="translate(-283.981 196.618)"/>
    </g>
  </g>
</svg>
