<svg xmlns="http://www.w3.org/2000/svg" width="16" height="16" viewBox="0 0 16 16">
  <g id="eLaundry_Favicon" transform="translate(484 2156)">
    <rect id="Rectangle_1673" data-name="Rectangle 1673" width="16" height="16" transform="translate(-484 -2156)" fill="none"/>
    <g id="Group_9740" data-name="Group 9740" transform="translate(-15 -5)">
      <g id="Group_9739" data-name="Group 9739" transform="translate(-468 -2150)">
        <path id="Path_3264" data-name="Path 3264" d="M-21.027-228.679a7,7,0,0,0-7,7,7,7,0,0,0,7,7,7,7,0,0,0,7-7A7,7,0,0,0-21.027-228.679Zm0,12.9a5.9,5.9,0,0,1-5.9-5.9,5.9,5.9,0,0,1,5.9-5.9,5.9,5.9,0,0,1,5.9,5.9A5.9,5.9,0,0,1-21.027-215.779Z" transform="translate(28.027 228.679)" fill="#513aff"/>
        <path id="Path_3265" data-name="Path 3265" d="M-2.877-200.179a5.3,5.3,0,0,1-5.3,5.3,5.3,5.3,0,0,1-5.3-5.3,5.31,5.31,0,0,1,.574-2.4c.244-.48.978-1.79,1.627-1.757.294.015.458.387.377.671a1.572,1.572,0,0,1-.539.686,3.454,3.454,0,0,0-1.17,1.591.647.647,0,0,0,.014.469.288.288,0,0,0,.4.123,2.242,2.242,0,0,1,.171-.836,1.089,1.089,0,0,1,.364-.5.545.545,0,0,1,.588-.037.633.633,0,0,1,.131.8,5.246,5.246,0,0,1-.525.707,1.687,1.687,0,0,0-.07,1.869,1.363,1.363,0,0,0,1.75.44,4.755,4.755,0,0,0,.556-.458,2.422,2.422,0,0,1,1.287-.537,1.177,1.177,0,0,1,.465.03,1.931,1.931,0,0,1,.43.227,3.165,3.165,0,0,0,1.857.5,2.195,2.195,0,0,0,1.658-.905,3.074,3.074,0,0,0,.419-1.7c0,.019.172.257.192.332A2.685,2.685,0,0,1-2.877-200.179Z" transform="translate(15.181 207.179)" fill="#513aff"/>
        <path id="Path_3266" data-name="Path 3266" d="M-2.877-200.179a5.3,5.3,0,0,1-5.3,5.3,5.3,5.3,0,0,1-5.3-5.3,5.31,5.31,0,0,1,.574-2.4c.244-.48.978-1.79,1.627-1.757.294.015.458.387.377.671a1.572,1.572,0,0,1-.539.686,3.454,3.454,0,0,0-1.17,1.591.647.647,0,0,0,.014.469.288.288,0,0,0,.4.123,2.242,2.242,0,0,1,.171-.836,1.089,1.089,0,0,1,.364-.5.545.545,0,0,1,.588-.037.633.633,0,0,1,.131.8,5.246,5.246,0,0,1-.525.707,1.687,1.687,0,0,0-.07,1.869,1.363,1.363,0,0,0,1.75.44,4.755,4.755,0,0,0,.556-.458,2.422,2.422,0,0,1,1.287-.537,1.177,1.177,0,0,1,.465.03,1.931,1.931,0,0,1,.43.227,3.165,3.165,0,0,0,1.857.5,2.195,2.195,0,0,0,1.658-.905,3.074,3.074,0,0,0,.419-1.7c0,.019.172.257.192.332A2.685,2.685,0,0,1-2.877-200.179Z" transform="translate(15.181 207.179)" fill="#1e90ff"/>
        <path id="Path_3267" data-name="Path 3267" d="M6.289-202.731a1.425,1.425,0,0,1,.234.057,2.127,2.127,0,0,1,.815,1.235,3.918,3.918,0,0,0,.6-.566c-.008.772.39,1.543.195,2.29-.058.22-.165.425-.228.644a1.87,1.87,0,0,0-.066.372c.139-.109.265-.238.4-.351a2.422,2.422,0,0,1,1.287-.537,1.18,1.18,0,0,1,.465.03,1.93,1.93,0,0,1,.43.228,3.2,3.2,0,0,0,1.768.505,3.848,3.848,0,0,1,.028-.82c.071-.522.275-1,.379-1.512a2.5,2.5,0,0,0,.02-.875,1.362,1.362,0,0,1,.364.487c.018.042.052.094.094.079a3.869,3.869,0,0,1,1.038-.933,8.551,8.551,0,0,0-1.132-1.492,1.412,1.412,0,0,0-1.031-.447h-.66a.927.927,0,0,1-.981.861.927.927,0,0,1-.981-.861h-.66a1.866,1.866,0,0,0-1.2.552,1.967,1.967,0,0,1-.2.145c-.138.13-.278.249-.411.383s-.279.291-.433.422Z" transform="translate(-2.285 207.179)" fill="#ff4141"/>
      </g>
    </g>
  </g>
</svg>
